<svg width="64" height="64" viewBox="0 0 64 64" fill="none" xmlns="http://www.w3.org/2000/svg">
  <!-- Background circle -->
  <circle cx="32" cy="32" r="30" fill="#1a365d" stroke="#2d5a87" stroke-width="2"/>
  
  <!-- Inner shield -->
  <path d="M32 8L44 16V28C44 36 38 42 32 46C26 42 20 36 20 28V16L32 8Z" fill="#2d5a87" stroke="#4a90e2" stroke-width="1.5"/>
  
  <!-- Star in center -->
  <path d="M32 18L34.5 23H40L35.75 26.5L37.25 32L32 28.5L26.75 32L28.25 26.5L24 23H29.5L32 18Z" fill="#ffd700" stroke="#ffed4e" stroke-width="0.5"/>
  
  <!-- Military stripes -->
  <rect x="28" y="34" width="8" height="1.5" fill="#ffd700"/>
  <rect x="26" y="36.5" width="12" height="1.5" fill="#ffd700"/>
  <rect x="28" y="39" width="8" height="1.5" fill="#ffd700"/>
  
  <!-- Corner decorations -->
  <circle cx="16" cy="16" r="2" fill="#4a90e2"/>
  <circle cx="48" cy="16" r="2" fill="#4a90e2"/>
  <circle cx="16" cy="48" r="2" fill="#4a90e2"/>
  <circle cx="48" cy="48" r="2" fill="#4a90e2"/>
  
  <!-- Text elements -->
  <text x="32" y="56" text-anchor="middle" font-family="Arial, sans-serif" font-size="6" font-weight="bold" fill="#4a90e2">TACTICAL</text>
</svg>